<svg id="Group_228" data-name="Group 228" xmlns="http://www.w3.org/2000/svg" width="27.429" height="27.428" viewBox="0 0 27.429 27.428">
  <path id="Path_11" data-name="Path 11" d="M26.786,4.209a2.682,2.682,0,0,0-2.674-2.657L7.157,1.5A2.662,2.662,0,0,0,4.5,4.151V21.643a2.591,2.591,0,0,0,2.657,2.571H21.643l-.7-2.354,5.84,5.354Zm-7.463,14.1s-.469-.554-.857-1.034a4.135,4.135,0,0,0,2.349-1.526,7.485,7.485,0,0,1-1.491.76,9.415,9.415,0,0,1-1.886.56,9.1,9.1,0,0,1-3.36-.017,9.557,9.557,0,0,1-1.9-.554,7.948,7.948,0,0,1-.949-.44c-.04-.023-.08-.04-.114-.063s-.04-.029-.057-.029c-.234-.131-.36-.217-.36-.217a4.052,4.052,0,0,0,2.269,1.514c-.389.491-.869,1.057-.869,1.057a4.721,4.721,0,0,1-3.96-1.954A17.065,17.065,0,0,1,10,8.889a6.442,6.442,0,0,1,3.634-1.343l.131.154a8.528,8.528,0,0,0-3.4,1.686s.286-.16.766-.366A10.3,10.3,0,0,1,14.077,8.2,1.474,1.474,0,0,1,14.3,8.18a11.184,11.184,0,0,1,2.623-.029,10.828,10.828,0,0,1,3.9,1.234A8.423,8.423,0,0,0,17.6,7.751l.177-.206a6.4,6.4,0,0,1,3.634,1.349,17.034,17.034,0,0,1,1.869,7.48A4.775,4.775,0,0,1,19.323,18.311Z" transform="translate(-1.929 -0.643)" fill="#fe7f7f"/>
  <path id="Path_12" data-name="Path 12" d="M18.886,20.44a1.426,1.426,0,1,0,1.326,1.423A1.372,1.372,0,0,0,18.886,20.44Z" transform="translate(-7.526 -8.76)" fill="#fe7f7f"/>
  <path id="Path_13" data-name="Path 13" d="M27.176,20.44a1.427,1.427,0,1,0,1.32,1.423A1.368,1.368,0,0,0,27.176,20.44Z" transform="translate(-11.079 -8.76)" fill="#fe7f7f"/>
  <path id="Path_14" data-name="Path 14" d="M0,0H27.429V27.429H0Z" fill="none"/>
</svg>
