<svg id="Group_227" data-name="Group 227" xmlns="http://www.w3.org/2000/svg" width="27.429" height="27.428" viewBox="0 0 27.429 27.428">
  <path id="Path_9" data-name="Path 9" d="M15.429,12.594a2.834,2.834,0,1,0,2.834,2.834A2.834,2.834,0,0,0,15.429,12.594Zm11.349-2.8a7.414,7.414,0,0,0-.48-2.583A4.562,4.562,0,0,0,23.646,4.56a7.414,7.414,0,0,0-2.583-.48C19.589,4,19.154,4,15.429,4s-4.16,0-5.634.08a7.414,7.414,0,0,0-2.583.48A4.562,4.562,0,0,0,4.56,7.211a7.414,7.414,0,0,0-.48,2.583C4,11.269,4,11.7,4,15.429s0,4.16.08,5.634a7.9,7.9,0,0,0,.48,2.594A4.575,4.575,0,0,0,7.211,26.3a7.414,7.414,0,0,0,2.583.48c1.474.08,1.909.08,5.634.08s4.16,0,5.634-.08a7.414,7.414,0,0,0,2.583-.48,4.575,4.575,0,0,0,2.651-2.64,7.586,7.586,0,0,0,.48-2.594c.08-1.474.08-1.909.08-5.634S26.857,11.269,26.777,9.794Zm-2.9,9.143a6.535,6.535,0,0,1-.446,2.057,4.39,4.39,0,0,1-2.434,2.434,6.547,6.547,0,0,1-2.069.4H11.931a6.547,6.547,0,0,1-2.069-.4,4.254,4.254,0,0,1-2.434-2.434,6.231,6.231,0,0,1-.389-2.069V11.931a6.231,6.231,0,0,1,.389-2.069,4.042,4.042,0,0,1,.983-1.5,4.122,4.122,0,0,1,1.451-.937,6.547,6.547,0,0,1,2.069-.4h6.994a6.547,6.547,0,0,1,2.069.4,4.254,4.254,0,0,1,2.434,2.434,6.547,6.547,0,0,1,.4,2.069v3.5c0,2.354.08,2.594.046,3.5Zm-1.829-8.5a2.707,2.707,0,0,0-1.611-1.611,4.494,4.494,0,0,0-1.577-.251H12a4.65,4.65,0,0,0-1.577.3,2.721,2.721,0,0,0-1.611,1.554A4.914,4.914,0,0,0,8.571,12v6.857a4.944,4.944,0,0,0,.3,1.577,2.707,2.707,0,0,0,1.611,1.611,4.918,4.918,0,0,0,1.52.3h6.857a4.65,4.65,0,0,0,1.577-.3,2.707,2.707,0,0,0,1.611-1.611,4.65,4.65,0,0,0,.3-1.577V12a4.389,4.389,0,0,0-.3-1.577Zm-6.617,9.36a4.351,4.351,0,0,1-4.354-4.366h0a4.365,4.365,0,1,1,4.354,4.366ZM20,11.92a1.029,1.029,0,0,1,0-2.046h0a1.029,1.029,0,0,1,0,2.046Z" transform="translate(-1.714 -1.714)" fill="#fe7f7f"/>
  <path id="Path_10" data-name="Path 10" d="M0,0H27.429V27.429H0Z" fill="none"/>
</svg>
