<svg id="Group_226" data-name="Group 226" xmlns="http://www.w3.org/2000/svg" width="27.434" height="27.428" viewBox="0 0 27.434 27.428">
  <path id="Path_7" data-name="Path 7" d="M27.424,8.634A10.992,10.992,0,0,1,24.2,9.52,5.667,5.667,0,0,0,26.67,6.406,11.363,11.363,0,0,1,23.1,7.777a5.628,5.628,0,0,0-9.589,5.131A16,16,0,0,1,1.91,7.023a5.644,5.644,0,0,0,1.737,7.514,5.662,5.662,0,0,1-2.549-.7V13.9a5.624,5.624,0,0,0,4.514,5.52,5.755,5.755,0,0,1-1.486.2,5.918,5.918,0,0,1-1.057-.1,5.632,5.632,0,0,0,5.251,3.909A11.254,11.254,0,0,1,1.333,25.84,11.607,11.607,0,0,1-.01,25.76a15.929,15.929,0,0,0,8.629,2.531c10.349,0,16.011-8.577,16.011-16.017,0-.246-.006-.486-.011-.726A11.412,11.412,0,0,0,27.424,8.64Z" transform="translate(0.01 -2.571)" fill="#fe7f7f"/>
  <path id="Path_8" data-name="Path 8" d="M0,0H27.429V27.429H0Z" transform="translate(0.006)" fill="none"/>
</svg>
