<svg id="translate" xmlns="http://www.w3.org/2000/svg" width="18.286" height="18.286" viewBox="0 0 18.286 18.286">
  <path id="Path_95" data-name="Path 95" d="M4.766,7.245l-.5,1.47H3L5.128,3H6.6L8.714,8.714H7.381l-.5-1.47H4.766ZM6.633,6.4,5.857,4.093H5.8L5.025,6.4H6.634Z" transform="translate(0.429 0.429)" fill="#fe7f7f"/>
  <path id="Path_96" data-name="Path 96" d="M0,2.286A2.286,2.286,0,0,1,2.286,0h8a2.286,2.286,0,0,1,2.286,2.286V5.714H16A2.286,2.286,0,0,1,18.286,8v8A2.286,2.286,0,0,1,16,18.286H8A2.286,2.286,0,0,1,5.714,16V12.572H2.286A2.286,2.286,0,0,1,0,10.286ZM2.286,1.143A1.143,1.143,0,0,0,1.143,2.286v8a1.143,1.143,0,0,0,1.143,1.143h8a1.143,1.143,0,0,0,1.143-1.143v-8a1.143,1.143,0,0,0-1.143-1.143Zm8.158,11.423a8.36,8.36,0,0,0,.72.967A8.863,8.863,0,0,1,8,15.009,5.746,5.746,0,0,1,8.634,16a10.007,10.007,0,0,0,3.3-1.707,8.189,8.189,0,0,0,3.349,1.682A5.142,5.142,0,0,1,16,14.958a8.09,8.09,0,0,1-3.223-1.467A9.245,9.245,0,0,0,14.63,10.34H16v-1.2H12.572v1.2h.874a7.455,7.455,0,0,1-1.454,2.434,6.933,6.933,0,0,1-.474-.562,2.272,2.272,0,0,1-1.074.354Z" fill="#fe7f7f"/>
</svg>
