<svg id="Group_231" data-name="Group 231" xmlns="http://www.w3.org/2000/svg" width="20.071" height="20.071" viewBox="0 0 20.071 20.071">
  <path id="Path_17" data-name="Path 17" d="M8.363,10.872A2.509,2.509,0,1,0,5.854,8.363,2.511,2.511,0,0,0,8.363,10.872Zm0,1.673a4.182,4.182,0,1,1,4.182-4.182A4.183,4.183,0,0,1,8.363,12.545ZM8.363,0A.839.839,0,0,1,9.2.836V2.509a.836.836,0,0,1-1.673,0V.836A.839.839,0,0,1,8.363,0Zm0,13.381a.839.839,0,0,1,.836.836V15.89a.836.836,0,0,1-1.673,0V14.217A.839.839,0,0,1,8.363,13.381ZM.836,7.527H2.509a.836.836,0,0,1,0,1.673H.836a.836.836,0,0,1,0-1.673Zm13.381,0H15.89a.836.836,0,0,1,0,1.673H14.217a.836.836,0,0,1,0-1.673Zm.059-5.076a.838.838,0,0,1,0,1.183L13.092,4.813a.834.834,0,1,1-1.179-1.179L13.092,2.45A.838.838,0,0,1,14.276,2.45ZM4.813,11.913a.833.833,0,0,1,0,1.179L3.634,14.276A.837.837,0,1,1,2.45,13.092l1.183-1.183a.833.833,0,0,1,1.179,0ZM3.634,2.45,4.813,3.634A.834.834,0,0,1,3.634,4.813L2.45,3.634A.838.838,0,0,1,3.634,2.45Zm9.459,9.463,1.183,1.179a.837.837,0,0,1-1.183,1.183l-1.179-1.183a.834.834,0,1,1,1.179-1.179Z" transform="translate(1.959 1.672)" fill="#fe7f7f"/>
  <path id="Path_18" data-name="Path 18" d="M0,0H20.071V20.071H0Z" transform="translate(0)" fill="none"/>
</svg>
